# AST/ASF file generated using VICON BodyLanguage
# -----------------------------------------------
:version 1.10
:name VICON
:units
  mass 1.0
  length 0.45
  angle deg
:documentation
   .ast/.asf automatically generated from VICON data using
   VICON BodyBuilder and BodyLanguage model FoxedUp or BRILLIANT.MOD
:root
   order TX TY TZ RX RY RZ
   axis XYZ
   position 0 0 0  
   orientation 0 -0 0 
:bonedata
  begin
     id 1 
     name lhipjoint
     direction 0.515797 -0.759363 0.396637 
     length 2.47888 
     axis 0 -0 0  XYZ
  end
  begin
     id 2 
     name lfemur
     direction 0.34202 -0.939693 0  
     length 6.81885  
     axis 0 -0 20  XYZ
    dof rx ry rz
    limits (-160.0 20.0)
           (-70.0 70.0)
           (-60.0 70.0)
  end
  begin
     id 3 
     name ltibia
     direction 0.342037 -0.939687 0   
     length 7.89258   
     axis 0 -0 20   XYZ
    dof rx
    limits (-10.0 170.0)
  end
  begin
     id 4 
     name lfoot
     direction 0.173497 -0.476678 0.861787   
     length 2.51543   
     axis -90 -1.13533e-015 20   XYZ
    dof rx rz
    limits (-45.0 90.0)
           (-70.0 20.0)
  end
  begin
     id 5 
     name ltoes
     direction 1.53564e-011 -4.21897e-011 1   
     length 1.21388   
     axis -90 -1.13533e-015 20   XYZ
    dof rx
    limits (-90.0 20.0)
  end
  begin
     id 6 
     name rhipjoint
     direction -0.489454 -0.772941 0.403729   
     length 2.43534  
     axis 0 -0 0  XYZ 
  end
  begin
     id 7 
     name rfemur
     direction -0.34202 -0.939693 0   
     length 7.10357   
     axis 0 -0 -20   XYZ
    dof rx ry rz
    limits (-160.0 20.0)
           (-70.0 70.0)
           (-70.0 60.0)
  end
  begin
     id 8 
     name rtibia
     direction -0.34202 -0.939693 0   
     length 9.16127   
     axis 0 -0 -20   XYZ
    dof rx
    limits (-10.0 170.0)
 end
 begin
     id 9 
     name rfoot
     direction -0.270974 -0.748671 0.605033   
     length 1.74894  
     axis -90 1.13533e-015 -20   XYZ
    dof rx rz
    limits (-45.0 90.0)
           (-20.0 70.0)
  end
  begin
     id 10 
     name rtoes
     direction -1.53557e-011 -4.21759e-011 1   
     length 0.787585   
     axis -90 1.13533e-015 -20   XYZ
    dof rx
    limits (-90.0 20.0)
  end
  begin
     id 11 
     name lowerback
     direction -0.0140249 0.999561 0.0260968   
     length 2.16963   
     axis 0 -0 0   XYZ
    dof rx ry rz
    limits (-20.0 45.0)
           (-30.0 30.0)
           (-30.0 30.0)
  end
  begin
     id 12 
     name upperback
     direction 0.00860018 0.999959 -0.002711   
     length 2.1726   
     axis 0 -0 0   XYZ
    dof rx ry rz
    limits (-20.0 45.0)
           (-30.0 30.0)
           (-30.0 30.0)
  end
  begin
     id 13 
     name thorax
     direction 0.015211 0.999782 -0.0143191   
     length 2.17061   
     axis 0 -0 0   XYZ
    dof rx ry rz
    limits (-20.0 45.0)
           (-30.0 30.0)
           (-30.0 30.0)
  end
  begin
     id 14 
     name lowerneck
     direction -0.0140143 0.999447 0.030145   
     length 2.26749   
     axis 0 -0 0   XYZ
    dof rx ry rz
    limits (-20.0 45.0)
           (-30.0 30.0)
           (-30.0 30.0)
  end
  begin
     id 15 
     name upperneck
     direction 0.118062 0.961438 -0.248392   
     length 2.22728   
     axis 0 -0 0   XYZ
    dof rx ry rz
    limits (-20.0 45.0)
           (-30.0 30.0)
           (-30.0 30.0)
  end
  begin
     id 16
     name head
     direction 0.0431885 0.9954 -0.085514  
     length 2.28786  
     axis 0 -0 0   XYZ
    dof rx ry rz
    limits (-20.0 45.0)
           (-30.0 30.0)
           (-30.0 30.0)
  end
  begin
     id 17 
     name lclavicle
     direction 0.912126 0.409548 0.0172323  
     length 4.31571  
     axis 0 -0 0   XYZ
    dof ry rz
    limits (-20.0 10.0)
           (0.0 20.0)
  end
  begin
     id 18 
     name lhumerus
     direction 1 -4.48977e-011 1.93091e-027   
     length 5.13658   
     axis 180 -30 -90   XYZ
    dof rx ry rz
    limits (-60.0 90.0)
           (-90.0 90.0)
           (-90.0 90.0)
  end
  begin
     id 19
     name lradius
     direction 1 -4.48916e-011 6.84018e-027   
     length 3.22473   
     axis 180 -30 -90   XYZ
    dof rx
    limits (-10.0 170.0)
  end
  begin
     id 20
     name lwrist
     direction 1 -4.48987e-011 7.01981e-027   
     length 1.61236   
     axis -4.37994e-015 90 90   XYZ
    dof ry
    limits (-180.0 0.0)
 end
  begin
     id 21 
     name lhand
     direction 1 -4.49037e-011 1.40335e-026   
     length 0.936406   
     axis -8.96029e-015 90 90   XYZ
    dof rx rz
    limits (-90.0 90.0)
           (-45.0 45.0)
  end
  begin
     id 22 
     name lfingers
     direction 1 -4.48886e-011 2.8104e-026   
     length 0.754955   
     axis -1.79203e-014 90 90   XYZ
    dof rx
    limits (0.0 90.0)
  end
  begin
     id 23
     name lthumb
     direction 0.707107 -6.34937e-011 0.707107   
     length 1.08397   
     axis -90 45 -4.48555e-014   XYZ
    dof rx rz
    limits (-45.0 45.0)
           (-45.0 45.0)
  end
  begin
     id 24 
     name rclavicle
     direction -0.947962 0.317997 0.0156638   
     length 4.86918  
     axis 0 -0 0   XYZ 
    dof ry rz
    limits (-10.0 20.0)
           (-20.0 0.0)
  end
  begin
     id 25 
     name rhumerus
     direction -1 -4.48951e-011 2.80534e-018  
     length 5.60911   
     axis 180 30 90   XYZ
    dof rx ry rz
    limits (-90.0 60.0)
           (-90.0 90.0)
           (-90.0 90.0)
  end
  begin
     id 26 
     name rradius
     direction -1 -4.4898e-011 2.11315e-027   
     length 3.38704   
     axis 180 30 90   XYZ
    dof rx
    limits (-10.0 170.0)
  end
  begin
     id 27 
     name rwrist
     direction -1 -4.48933e-011 7.02314e-027   
     length 1.69352   
     axis -4.37994e-015 -90 -90   XYZ
    dof ry
    limits (-180.0 0.0)
  end
  begin
     id 28
     name rhand
     direction -1 -4.48937e-011 1.40458e-026   
     length 0.755878   
     axis -8.96029e-015 -90 -90   XYZ
    dof rx rz
    limits (-90.0 90.0)
           (-45.0 45.0)
  end
  begin
     id 29
     name rfingers
     direction -1 -4.4901e-011 2.80737e-026   
     length 0.609409   
     axis -1.79203e-014 -90 -90   XYZ
    dof rx
    limits (0.0 90.0)
  end
  begin
     id 30
     name rthumb
     direction -0.707107 -6.34968e-011 0.707107   
     length 0.874992   
     axis -90 -45 4.48555e-014   XYZ
    dof rx rz
    limits (-45.0 45.0)
           (-45.0 45.0)
  end
:hierarchy
  begin
    root lhipjoint rhipjoint lowerback
    lhipjoint lfemur
    lfemur ltibia
    ltibia lfoot
    lfoot ltoes
    rhipjoint rfemur
    rfemur rtibia
    rtibia rfoot
    rfoot rtoes
    lowerback upperback
    upperback thorax
    thorax lowerneck lclavicle rclavicle
    lowerneck upperneck
    upperneck head
    lclavicle lhumerus
    lhumerus lradius
    lradius lwrist
    lwrist lhand lthumb
    lhand lfingers
    rclavicle rhumerus
    rhumerus rradius
    rradius rwrist
    rwrist rhand rthumb
    rhand rfingers
  end

#!OML:ASF C:\ViconDB\ViconDB\414\Spring2016\041811\Spring2016.ASF
:FULLY-SPECIFIED
:DEGREES
76
root 11.4188 17.9976 9.44119 -176.834 -10.629 -178.972
lowerback -0.634181 0.536863 -3.59817
upperback 1.38714 0.746114 0.761352
thorax 1.7242 0.31253 2.81538
lowerneck -12.3023 -0.171722 -6.6723
upperneck 21.5344 -2.97463 13.3615
head 9.02813 -0.992453 5.35315
rclavicle 6.5102e-015 2.18663e-015
rhumerus -81.2828 28.9251 -110.754
rradius 87.4664
rwrist 36.7647
rhand -48.6878 1.57634
rfingers 7.12502
rthumb -21.3292 -27.2699
lclavicle 6.5102e-015 2.18663e-015
lhumerus -87.5836 -43.8518 123.96
lradius 73.74
lwrist -27.5773
lhand -48.2125 0.261744
lfingers 7.12502
lthumb -20.8726 29.1589
rfemur 153.027 19.3144 -176.569
rtibia 50.6702
rfoot 23.9967 -71.0514
rtoes -26.3374
lfemur -3.13571 -7.9224 -19.3777
ltibia 24.1776
lfoot -24.5274 -3.94511
ltoes -11.3933
77
root 11.387 18.0047 9.40134 -176.914 -10.6823 -178.857
lowerback -0.512306 0.512396 -3.48472
upperback 1.3805 0.706206 0.799775
thorax 1.65254 0.295155 2.78897
lowerneck -12.2569 -0.18987 -6.5723
upperneck 21.4664 -2.97561 13.225
head 8.9938 -0.997234 5.28375
rclavicle 7.36373e-014 -1.98785e-015
rhumerus -81.1984 28.7904 -110.521
rradius 87.5241
rwrist 37.2852
rhand -48.7592 1.56722
rfingers 7.12502
rthumb -21.3978 -27.2712
lclavicle 7.36373e-014 -1.98785e-015
lhumerus -87.6081 -43.7247 124.024
lradius 73.6278
lwrist -27.7298
lhand -48.4143 0.648262
lfingers 7.12502
lthumb -21.0664 29.524
rfemur 154.142 19.7687 -175.759
rtibia 50.5325
rfoot 22.3186 -70.3854
rtoes -25.7675
lfemur -2.62882 -8.06431 -19.4009
ltibia 23.6498
lfoot -24.413 -3.81339
ltoes -11.3604
78
root 11.3577 18.0109 9.36248 -176.984 -10.7778 -178.678
lowerback -0.366487 0.46963 -3.37916
upperback 1.36226 0.640404 0.905073
thorax 1.55654 0.264799 2.83531
lowerneck -12.3851 -0.198307 -6.72566
upperneck 21.566 -2.98881 13.3332
head 9.05656 -1.00119 5.3532
rclavicle 2.15806e-014 -4.37326e-015
rhumerus -81.1821 28.7808 -110.288
rradius 87.6732
rwrist 37.3823
rhand -48.7522 1.69953
rfingers 7.12502
rthumb -21.391 -27.1397
lclavicle 2.15806e-014 -4.37326e-015
lhumerus -87.6587 -43.5825 124.16
lradius 73.6413
lwrist -27.6831
lhand -48.3937 0.694848
lfingers 7.12502
lthumb -21.0467 29.5727
rfemur 155.526 20.1782 -174.821
rtibia 50.1301
rfoot 20.7702 -69.3514
rtoes -25.0478
lfemur -2.21184 -8.01825 -19.2957
ltibia 23.1834
lfoot -24.271 -3.85642
ltoes -11.4711
79
root 11.3296 18.0197 9.32005 -177.024 -10.8242 -178.502
lowerback -0.212344 0.435189 -3.23699
upperback 1.30751 0.586854 0.943185
thorax 1.41842 0.24299 2.79197
lowerneck -12.4332 -0.177586 -6.55686
upperneck 21.579 -2.97557 13.2442
head 9.06631 -0.988019 5.29373
rclavicle -2.89232e-014 2.38542e-015
rhumerus -81.2446 28.7109 -110.281
rradius 87.8332
rwrist 37.4796
rhand -48.5619 1.59442
rfingers 7.12502
rthumb -21.2082 -27.2654
lclavicle -2.89232e-014 2.38542e-015
lhumerus -87.6252 -43.392 124.129
lradius 73.4886
lwrist -27.7046
lhand -48.3179 0.71291
lfingers 7.12502
lthumb -20.9739 29.5989
rfemur 157.14 20.6158 -173.819
rtibia 49.4961
rfoot 19.003 -68.4038
rtoes -25.1861
lfemur -1.82035 -8.0596 -19.2089
ltibia 22.7549
lfoot -24.1661 -3.80675
ltoes -11.7773
80
root 11.3005 18.0213 9.27498 -177.082 -10.8788 -178.335
lowerback -0.13551 0.348133 -3.05552
upperback 1.31517 0.466004 0.93816
thorax 1.393 0.184782 2.68256
lowerneck -12.5936 -0.0814125 -6.35643
upperneck 21.6574 -2.89636 13.252
head 9.1135 -0.929926 5.27408
rclavicle 1.17283e-014 -7.95139e-015
rhumerus -81.2238 28.7516 -110.354
rradius 87.9976
rwrist 37.2935
rhand -48.6143 1.70995
rfingers 7.12502
rthumb -21.2585 -27.1442
lclavicle 1.17283e-014 -7.95139e-015
lhumerus -87.5458 -43.2 123.965
lradius 73.4123
lwrist -27.5089
lhand -48.2752 0.572341
lfingers 7.12502
lthumb -20.9329 29.4628
rfemur 158.961 21.2377 -172.802
rtibia 48.5903
rfoot 17.1663 -67.3627
rtoes -24.3303
lfemur -1.45585 -8.11911 -19.1441
ltibia 22.4212
lfoot -24.1096 -3.72503
ltoes -11.568
81
root 11.2735 18.0238 9.23099 -177.173 -10.9275 -178.239
lowerback 0.0472944 0.345456 -2.92315
upperback 1.29852 0.45471 0.966731
thorax 1.27462 0.182369 2.63594
lowerneck -12.6073 -0.0726635 -6.37543
upperneck 21.6191 -2.88806 13.3148
head 9.10307 -0.920881 5.29968
rclavicle -1.58903e-014 2.78299e-015
rhumerus -81.3256 28.6796 -110.256
rradius 88.2259
rwrist 37.1332
rhand -48.3989 2.26903
rfingers 7.12502
rthumb -21.0517 -26.6083
lclavicle -1.58903e-014 2.78299e-015
lhumerus -87.841 -43.1382 124.253
lradius 73.4767
lwrist -27.3833
lhand -48.3139 0.900788
lfingers 7.12502
lthumb -20.97 29.7872
rfemur 160.925 21.7559 -171.847
rtibia 47.4971
rfoot 14.5258 -66.3628
rtoes -24.4013
lfemur -1.08716 -8.07706 -19.1248
ltibia 22.1266
lfoot -24.0139 -3.78793
ltoes -11.6122
82
root 11.248 18.018 9.18036 -177.276 -11.0221 -178.003
lowerback 0.162084 0.288391 -2.71526
upperback 1.28902 0.371776 1.06313
thorax 1.20643 0.143261 2.61666
lowerneck -12.6572 -0.0365151 -6.3395
upperneck 21.6366 -2.82641 13.2575
head 9.11043 -0.891039 5.28112
rclavicle 1.18898e-014 -3.97569e-016
rhumerus -81.4769 28.7552 -110.207
rradius 88.4428
rwrist 37.251
rhand -48.3885 1.74824
rfingers 7.12502
rthumb -21.0417 -27.1302
lclavicle 1.18898e-014 -3.97569e-016
lhumerus -87.9419 -42.9765 124.38
lradius 73.4246
lwrist -27.4454
lhand -48.3037 0.94125
lfingers 7.12502
lthumb -20.9602 29.8287
rfemur 163.006 22.3747 -170.75
rtibia 46.2068
rfoot 12.8239 -65.0842
rtoes -23.1735
lfemur -0.736142 -8.08529 -18.9525
ltibia 21.909
lfoot -23.9413 -3.90252
ltoes -11.6454
83
root 11.2233 18.0164 9.13124 -177.336 -11.1006 -177.892
lowerback 0.275525 0.246775 -2.63458
upperback 1.30213 0.310567 1.14434
thorax 1.16013 0.112849 2.6538
lowerneck -12.7916 -0.00608583 -6.28492
upperneck 21.6458 -2.75834 13.1721
head 9.13016 -0.853659 5.25098
rclavicle -3.97569e-015 1.31198e-014
rhumerus -81.4858 28.7517 -110.126
rradius 88.5946
rwrist 37.2578
rhand -48.3265 1.78113
rfingers 7.12502
rthumb -20.9821 -27.1039
lclavicle -3.97569e-015 1.31198e-014
lhumerus -88.0119 -42.9162 124.51
lradius 73.4209
lwrist -27.3044
lhand -48.2735 0.802319
lfingers 7.12502
lthumb -20.9312 29.693
rfemur 165.277 23.0828 -169.705
rtibia 44.8174
rfoot 9.92535 -64.1205
rtoes -23.9525
lfemur -0.401532 -7.85802 -18.8756
ltibia 21.6113
lfoot -23.7958 -4.06435
ltoes -11.9678
